# xmcd CD database file
#
# Track frame offsets:
#	150
#	58843
#	129126
#	162978
#	218571
#
# Disc length: 3366 seconds
#
# Revision: 0
# Processed by: cddbd v1.5.2PL0 Copyright (c) Steve Scherf et al.
# Submitted via: CDex 1.51
#
DISCID=3d0d2405
DTITLE=Maxime Bender Orchestra - Fellowship
DYEAR=2011
DGENRE=Jazz
TTITLE0=Naraka
TTITLE1=Atibaia
TTITLE2=Fellowship
TTITLE3=Emanon
TTITLE4=Poses
EXTD=YEAR: 2011
EXTT0=
EXTT1=
EXTT2=
EXTT3=
EXTT4=
PLAYORDER=
